HIERARCHY
ROOT Hips
{
	OFFSET 0.000000 0.000000 0.000000
	CHANNELS 6 Xposition Yposition Zposition Zrotation Yrotation Xrotation 
	JOINT LHipJoint
	{
		OFFSET 0.000000 0.000000 0.000000
		CHANNELS 3 Zrotation Yrotation Xrotation
		JOINT LeftUpLeg
		{
			OFFSET 1.363060 -1.794630 0.839290
			CHANNELS 3 Zrotation Yrotation Xrotation
			JOINT LeftLeg
			{
				OFFSET 2.448110 -6.726130 0.000000
				CHANNELS 3 Zrotation Yrotation Xrotation
				JOINT LeftFoot
				{
					OFFSET 2.562200 -7.039590 0.000000
					CHANNELS 3 Zrotation Yrotation Xrotation
					JOINT LeftToeBase
					{
						OFFSET 0.157640 -0.433110 2.322550
						CHANNELS 3 Zrotation Yrotation Xrotation
						End Site
						{
							OFFSET 0.000000 0.000000 0.000000
						}
					}
				}
			}
		}
	}
	JOINT RHipJoint
	{
		OFFSET 0.000000 0.000000 0.000000
		CHANNELS 3 Zrotation Yrotation Xrotation
		JOINT RightUpLeg
		{
			OFFSET -1.305520 -1.794630 0.839290
			CHANNELS 3 Zrotation Yrotation Xrotation
			JOINT RightLeg
			{
				OFFSET -2.542530 -6.985550 0.000000
				CHANNELS 3 Zrotation Yrotation Xrotation
				JOINT RightFoot
				{
					OFFSET -2.568260 -7.056230 0.000000
					CHANNELS 3 Zrotation Yrotation Xrotation
					JOINT RightToeBase
					{
						OFFSET -0.164730 -0.452590 2.363150
						CHANNELS 3 Zrotation Yrotation Xrotation
						End Site
						{
							OFFSET 0.000000 0.000000 0.000000
						}
					}
				}
			}
		}
	}
	JOINT LowerBack
	{
		OFFSET 0.000000 0.000000 0.000000
		CHANNELS 3 Zrotation Yrotation Xrotation
		JOINT Spine
		{
			OFFSET 0.028270 2.035590 -0.193380
			CHANNELS 3 Zrotation Yrotation Xrotation
			JOINT Spine1
			{
				OFFSET 0.056720 2.048850 -0.042750
				CHANNELS 3 Zrotation Yrotation Xrotation
				JOINT Neck
				{
					OFFSET 0.000000 0.000000 0.000000
					CHANNELS 3 Zrotation Yrotation Xrotation
					JOINT Neck1
					{
						OFFSET -0.054170 1.746240 0.172020
						CHANNELS 3 Zrotation Yrotation Xrotation
						JOINT Head
						{
							OFFSET 0.104070 1.761360 -0.123970
							CHANNELS 3 Zrotation Yrotation Xrotation
							End Site
							{
								OFFSET 0.000000 0.000000 0.000000
							}
						}
					}
				}
				JOINT LeftShoulder
				{
					OFFSET 0.000000 0.000000 0.000000
					CHANNELS 3 Zrotation Yrotation Xrotation
					JOINT LeftArm
					{
						OFFSET 3.362410 1.200890 -0.311210
						CHANNELS 3 Zrotation Yrotation Xrotation
						JOINT LeftForeArm
						{
							OFFSET 4.983000 -0.000000 -0.000000
							CHANNELS 3 Zrotation Yrotation Xrotation
							JOINT LeftHand
							{
								OFFSET 3.483560 -0.000000 -0.000000
								CHANNELS 3 Zrotation Yrotation Xrotation
								JOINT LeftFingerBase
								{
									OFFSET 0.000000 0.000000 0.000000
									CHANNELS 3 Zrotation Yrotation Xrotation
									JOINT LeftHandIndex1
									{
										OFFSET 0.715260 -0.000000 -0.000000
										CHANNELS 3 Zrotation Yrotation Xrotation
										End Site
										{
											OFFSET 0.000000 0.000000 0.000000
										}
									}
								}
								JOINT LThumb
								{
									OFFSET 0.000000 0.000000 0.000000
									CHANNELS 3 Zrotation Yrotation Xrotation
									End Site
									{
										OFFSET 0.000000 0.000000 0.000000
									}
								}
							}
						}
					}
				}
				JOINT RightShoulder
				{
					OFFSET 0.000000 0.000000 0.000000
					CHANNELS 3 Zrotation Yrotation Xrotation
					JOINT RightArm
					{
						OFFSET -3.136600 1.374050 -0.404650
						CHANNELS 3 Zrotation Yrotation Xrotation
						JOINT RightForeArm
						{
							OFFSET -5.241900 -0.000000 -0.000000
							CHANNELS 3 Zrotation Yrotation Xrotation
							JOINT RightHand
							{
								OFFSET -3.444170 -0.000000 -0.000000
								CHANNELS 3 Zrotation Yrotation Xrotation
								JOINT RightFingerBase
								{
									OFFSET 0.000000 0.000000 0.000000
									CHANNELS 3 Zrotation Yrotation Xrotation
									JOINT RightHandIndex1
									{
										OFFSET -0.622530 -0.000000 -0.000000
										CHANNELS 3 Zrotation Yrotation Xrotation
										End Site
										{
											OFFSET 0.000000 0.000000 0.000000
										}
									}
								}
								JOINT RThumb
								{
									OFFSET 0.000000 0.000000 0.000000
									CHANNELS 3 Zrotation Yrotation Xrotation
									End Site
									{
										OFFSET 0.000000 0.000000 0.000000
									}
								}
							}
						}
					}
				}
			}
		}
	}
}
MOTION
Frames: 8
Frame Time: 0.008333
16.324072 19.511399 0.879456 22.619263 -82.350435 -2.110052 -10.364296 3.455459 8.222939 -3.693803 -25.972183 -18.375108 1.181851 1.347497 41.346807 2.314590 9.537988 28.660742 4.612400 0.000000 -65.537000 10.348325 -3.285098 4.690126 5.861456 11.939004 -11.813128 -0.946262 -1.743930 32.013734 -1.080373 -4.086547 21.122835 -1.868899 0.000000 -82.734400 -2.619589 -1.473845 -13.514043 -1.070561 -1.665405 -5.539188 -4.783694 -1.754218 -1.130025 7.227895 -7.654775 -4.149123 -1.485647 -0.170231 1.057067 0.000000 0.000000 0.000000 11.967107 7.638743 -2.848277 -20.897820 -34.637819 -31.292734 177.699287 -60.224605 179.567680 36.030099 -27.628373 -9.844387 -0.714980 1.495390 0.000000 0.000000 0.000000 0.000000 0.000000 0.000000 0.000000 -2.467677 -7.151970 -2.184523 28.681936 27.483742 -47.183797 -178.387816 59.359975 179.753110 -40.767518 36.156960 -14.522456 0.646462 -1.220780 -0.000000 0.000000 0.000000 0.000000 0.000000 0.000000 0.000000 
16.179990 19.739478 0.863941 22.255035 -82.517457 -2.398046 -10.485102 3.372453 8.089359 -4.122024 -25.868908 -18.910845 1.280041 1.573564 46.730527 2.429419 10.270490 27.706289 4.845800 0.000000 -64.376400 10.418277 -3.169835 4.766870 6.127924 13.048523 -12.563566 -1.201106 -1.997158 38.219911 -1.317526 -5.476690 18.426922 -2.258100 0.000000 -81.584300 -2.633074 -1.436310 -13.457637 -1.103054 -1.630291 -5.486526 -4.832521 -1.717349 -0.942334 7.406255 -7.686916 -4.120694 -1.476491 -0.170265 1.065904 0.000000 0.000000 0.000000 11.952806 8.403194 -2.994082 -19.931202 -35.226669 -32.702514 177.588692 -57.929813 179.569092 36.145798 -28.437241 -10.192506 -0.752502 1.553636 -0.000000 0.000000 0.000000 0.000000 0.000000 0.000000 0.000000 -2.654374 -7.603894 -2.288945 28.034290 27.699954 -48.831166 -178.362425 56.431615 179.762922 -40.825162 36.698311 -14.802216 0.694184 -1.275604 0.000000 0.000000 0.000000 0.000000 0.000000 0.000000 0.000000 
16.043342 19.946187 0.845603 22.438936 -82.692173 -3.242747 -10.614169 3.310727 7.916114 -4.677394 -25.626616 -19.530973 1.402228 1.855739 52.544772 2.562302 11.378363 26.481277 5.235299 -0.000000 -63.488000 10.566970 -3.061786 4.795325 6.314303 13.886972 -13.505413 -1.454111 -2.290683 45.096975 -1.554303 -6.906142 15.345236 -2.509000 -0.000000 -80.257701 -2.713873 -1.413445 -13.320159 -1.146182 -1.600804 -5.421011 -4.856500 -1.688475 -0.762849 7.555353 -7.737024 -4.131494 -1.452342 -0.168561 1.062771 0.000000 0.000000 0.000000 12.026939 9.213992 -3.132376 -19.042049 -35.816608 -34.244833 177.495794 -55.672972 179.571723 36.314336 -29.277851 -10.572882 -0.792773 1.614109 -0.000000 0.000000 0.000000 0.000000 0.000000 0.000000 0.000000 -2.906280 -8.106509 -2.382471 27.430792 28.009303 -50.499215 -178.357416 53.608634 179.773374 -40.995692 37.270225 -15.142767 0.745662 -1.334116 -0.000000 0.000000 0.000000 0.000000 0.000000 0.000000 0.000000 
15.912859 20.132406 0.824672 23.159267 -82.879326 -4.616556 -10.755072 3.279240 7.710171 -5.300919 -25.254940 -20.210979 1.563754 2.190657 58.618700 2.710129 12.743769 25.144728 5.713000 -0.000000 -62.628200 10.790054 -2.982829 4.785566 6.394008 14.478117 -14.547964 -1.720980 -2.624860 52.346855 -1.772862 -8.283400 12.150121 -2.591400 -0.000000 -78.747800 -2.853347 -1.401614 -13.120692 -1.197565 -1.575092 -5.345479 -4.854813 -1.665824 -0.590094 7.673164 -7.815439 -4.183724 -1.414351 -0.165175 1.047376 0.000000 0.000000 0.000000 12.190582 10.072998 -3.262535 -18.271431 -36.387203 -35.895607 177.425438 -53.453962 179.575869 36.553957 -30.146946 -10.991610 -0.836070 1.675993 -0.000000 0.000000 0.000000 0.000000 0.000000 0.000000 0.000000 -3.215407 -8.668913 -2.467539 26.881091 28.408895 -52.162105 -178.373338 50.894455 179.784592 -41.310106 37.895988 -15.568904 0.800898 -1.396339 -0.000000 0.000000 0.000000 0.000000 0.000000 0.000000 0.000000 
15.787091 20.299882 0.801867 24.284386 -83.078246 -6.368539 -10.913625 3.279922 7.481019 -5.912072 -24.768902 -20.948610 1.779431 2.569165 64.812348 2.866491 14.231780 23.824687 6.212800 -0.000000 -61.768800 11.076027 -2.944531 4.750239 6.362213 14.869981 -15.633944 -2.025375 -2.997053 59.744730 -1.958790 -9.530229 9.033087 -2.510399 0.000000 -77.271799 -3.026787 -1.397413 -12.882845 -1.251858 -1.553009 -5.263199 -4.829853 -1.648725 -0.420830 7.760092 -7.930438 -4.279012 -1.365943 -0.160324 1.019565 0.000000 0.000000 0.000000 12.421568 10.985775 -3.383157 -17.634488 -36.933572 -37.630172 177.383124 -51.276815 179.581782 36.882964 -31.043221 -11.456472 -0.882808 1.738743 -0.000000 0.000000 0.000000 0.000000 0.000000 0.000000 0.000000 -3.559780 -9.298641 -2.547604 26.378003 28.896751 -53.793890 -178.410730 48.296452 179.796738 -41.792722 38.591161 -16.101027 0.859729 -1.462056 -0.000000 0.000000 0.000000 0.000000 0.000000 0.000000 0.000000 
15.664811 20.450594 0.777936 25.646525 -83.286441 -8.312785 -11.095522 3.308900 7.239719 -6.430021 -24.191854 -21.756960 2.061527 2.979647 71.023159 3.021337 15.701088 22.607864 6.675900 0.000001 -60.873700 11.413006 -2.948818 4.702086 6.219710 15.119079 -16.741495 -2.391880 -3.402919 67.154327 -2.100342 -10.566643 6.088296 -2.286700 0.000000 -75.913200 -3.208183 -1.397944 -12.631315 -1.303567 -1.534869 -5.178027 -4.785173 -1.636874 -0.252767 7.818552 -8.083673 -4.415816 -1.311016 -0.154303 0.980043 0.000000 0.000000 0.000000 12.696743 11.946809 -3.491922 -17.141102 -37.444260 -39.423680 177.373589 -49.143255 179.589691 37.313785 -31.960289 -11.972447 -0.933398 1.801896 -0.000000 0.000000 0.000000 0.000000 0.000000 0.000000 0.000000 -3.916576 -9.994283 -2.625094 25.911757 29.460255 -55.372281 -178.469510 45.816968 179.809925 -42.455080 39.358637 -16.751234 0.921895 -1.530971 -0.000000 0.000000 0.000000 0.000000 0.000000 0.000000 0.000000 
15.544952 20.586747 0.753553 27.093784 -83.503096 -10.282221 -11.305326 3.358417 6.997117 -6.788120 -23.555440 -22.652394 2.419264 3.410549 77.179182 3.162486 17.015361 21.544372 7.054000 -0.000000 -59.803401 11.790919 -2.991478 4.652381 5.966583 15.283298 -17.866818 -2.842561 -3.837292 74.500274 -2.189396 -11.323077 3.334924 -1.950900 0.000000 -74.617400 -3.377578 -1.400306 -12.387953 -1.348591 -1.520182 -5.093944 -4.724628 -1.629294 -0.085762 7.851926 -8.269076 -4.588983 -1.253092 -0.147439 0.930466 0.000000 0.000000 0.000000 12.998018 12.939005 -3.585954 -16.795885 -37.901189 -41.253421 177.399634 -47.057790 179.599719 37.852760 -32.883068 -12.539218 -0.988083 1.864783 -0.000000 0.000000 0.000000 0.000000 0.000000 0.000000 0.000000 -4.266700 -10.742489 -2.700680 25.473597 30.072527 -56.881549 -178.548377 43.462243 179.824189 -43.294471 40.188820 -17.520730 0.986820 -1.602442 -0.000000 0.000000 0.000000 0.000000 0.000000 0.000000 0.000000 
15.426727 20.709624 0.729228 28.511076 -83.730412 -12.152383 -11.545192 3.417755 6.762980 -6.939760 -22.902330 -23.637624 2.856928 3.850368 83.216418 3.280593 18.072273 20.700019 7.328700 -0.000000 -58.782400 12.201161 -3.064162 4.609464 5.601874 15.419299 -19.004436 -3.396200 -4.293744 81.728991 -2.224297 -11.765677 0.766126 -1.544200 -0.000000 -73.524799 -3.520792 -1.401679 -12.168292 -1.384320 -1.507793 -5.013515 -4.653130 -1.624381 0.080615 7.866817 -8.486079 -4.793743 -1.195401 -0.140031 0.872305 0.000000 0.000000 0.000000 13.297548 13.953892 -3.665128 -16.575933 -38.307737 -43.103785 177.460927 -45.043602 179.611802 38.503342 -33.801783 -13.157468 -1.046405 1.926622 -0.000000 0.000000 0.000000 0.000000 0.000000 0.000000 0.000000 -4.585140 -11.534227 -2.776567 25.047466 30.720371 -58.304479 -178.644211 41.251546 179.839368 -44.288967 41.063463 -18.398825 1.053182 -1.675331 -0.000000 0.000000 0.000000 0.000000 0.000000 0.000000 0.000000 
